PathFileType	4	(X/Y/Z)	T1_P1_NoVision_Movement_0_0-662.trc
DataRate	CameraRate	NumFrames	NumMarkers	Units	OrigDataRate	OrigDataStartFrame	OrigNumFrames
60	60	4	27	m	60	496	662
Frame#	Time	RHip			RKnee			RAnkle			RBigToe			RSmallToe			RHeel			LHip			LKnee			LAnkle			LBigToe			LSmallToe			LHeel			Neck			Head			Nose			RShoulder			RElbow			RWrist			RThumb			RIndex			RPinky			LShoulder			LElbow			LWrist			LThumb			LIndex			LPinky		
		X1	Y1	Z1	X2	Y2	Z2	X3	Y3	Z3	X4	Y4	Z4	X5	Y5	Z5	X6	Y6	Z6	X7	Y7	Z7	X8	Y8	Z8	X9	Y9	Z9	X10	Y10	Z10	X11	Y11	Z11	X12	Y12	Z12	X13	Y13	Z13	X14	Y14	Z14	X15	Y15	Z15	X16	Y16	Z16	X17	Y17	Z17	X18	Y18	Z18	X19	Y19	Z19	X20	Y20	Z20	X21	Y21	Z21	X22	Y22	Z22	X23	Y23	Z23	X24	Y24	Z24	X25	Y25	Z25	X26	Y26	Z26	X27	Y27	Z27
497	8.283333333333333	-95.828223943279	3861.75448018756	-556.5830199457829	258.09278043317994	3970.253953482979	-508.5057820971028	624.946375750899	4148.570617484387	-523.9466525230436	702.4260909623878	4095.115181653374	-478.434497572546	706.2423195912952	4098.600622299955	-540.5446913856188	656.3354174048953	4193.975673694823	-532.2855160080512	-114.19943127988938	3926.6882130617846	-360.22333773471485	221.18917935037558	4006.282227195321	-354.4947476830869	577.7404291590072	4194.4793358455845	-382.9204271505486	675.4086294079779	4157.110616147073	-345.37663937822407	633.10178119444	4192.393196390171	-311.1990357935486	610.8912500803267	4257.682375287853	-425.08580786621485	-683.5661546202714	3730.3010600772905	-475.568873264372	-909.2216751049159	3549.445064647702	-416.92448662015664	-750.2302930577449	3559.782783907341	-368.2081504483988	-577.0397402826948	3646.9149565509874	-588.9085009806737	-328.19461163701635	3708.1914791222766	-702.3406597691692	-155.5236864240819	3596.4690507047712	-541.3696030446437	-75.86756088353712	3591.091683871812	-425.5448661744092	-63.90681419224974	3556.212061297363	-412.8723420744729	-47.17250554105179	3565.074177233385	-446.9095614314801	-632.9768363779667	3869.7646554011453	-363.9500340951966	-396.0353251169217	4007.0448044067584	-332.449630694095	-144.43620328332136	4029.5681333599687	-269.5999573417563	-20.228190037068956	3999.0248291086696	-256.44065043132946	-0.5847148814924192	3976.3604021837446	-216.6192602253006	-2.3628713134960933	4064.622143565045	-260.1169038024339
498	8.3	-107.15460079603731	3855.917799909254	-555.7072631659765	260.7839327274965	3990.532986899821	-523.3459077218785	629.777226591716	4170.717497485645	-539.0988252596575	702.1374213628868	4095.0010687243366	-478.6296774243478	700.7732979056465	4067.192777126329	-533.5037843068745	661.6838136224723	4217.204807851561	-548.2041571684404	-124.59637880247233	3921.044871293285	-359.41684070884105	215.79676722298908	4005.815343531284	-354.7120382164845	571.6737593339556	4190.207030012111	-381.10170255713416	668.3059003126884	4152.794619762237	-343.45929247355673	633.0969854604115	4192.736274962093	-311.3607821739938	615.9694681286587	4274.607746025304	-436.5845166961494	-674.3570979246568	3705.786200175811	-468.794055271047	-909.2323623484907	3549.2376004409175	-416.85961196319084	-750.2224159226652	3559.478454336803	-368.16757150394693	-572.3809707426383	3648.0725203201882	-588.5567613121513	-330.35306239687304	3735.035993547669	-710.0814393549912	-145.62987700644072	3598.1264814504366	-546.5204241703318	-65.41102256654754	3595.6837545747276	-420.9647117376475	-53.38363855728682	3575.2388360913214	-422.50227890956813	-30.415112480057505	3534.3667678077145	-448.8203778755057	-632.920229524044	3869.7494413201866	-363.9373686692245	-395.74565071014604	4009.326623226729	-338.8215660386364	-139.78734610801922	4012.750999178754	-257.50151821422594	-24.828766705640902	3999.0971430047016	-256.89375865675623	-1.731857741626975	3978.203915230764	-218.83409264540597	0.43971397571659143	4049.8695304722155	-249.65253530717038
499	8.316666666666666	-106.04357058409735	3827.5237199373128	-548.4403004471977	267.18474582781784	3993.799353937556	-523.2177527921433	635.9025860640252	4175.489707962444	-541.4500925313131	702.05784896439	4094.83816067958	-478.55214676698677	707.1305299835915	4071.197990616205	-535.6643803302331	661.7051799467032	4217.897211255436	-548.4549223616232	-124.57127932033356	3920.814862652668	-359.2894743891681	215.77509927699506	4006.2585017248566	-355.0283514870798	578.1624278123334	4195.011538602746	-383.2163945423367	681.5102267283805	4161.01841842519	-344.77254909864496	644.3644192063059	4229.088544346542	-318.59989820046627	616.9635138336698	4257.649825722223	-424.67344699047914	-675.1005350735345	3707.063298299696	-470.0685341379115	-909.2139415946697	3549.2064077937202	-416.8917720860109	-750.2509897089523	3559.689505269816	-368.3514886257175	-572.404562558595	3647.9954579309574	-588.4694608269855	-325.79881209811555	3737.004157183525	-709.7258157248203	-135.16502342452054	3629.9994296852924	-554.4627240873792	-63.0658720929725	3599.0088099125287	-433.2845294528885	-38.68430724829768	3578.1395491019166	-431.5690484142843	-16.889276379024153	3555.718743794465	-469.17044105265484	-632.9598999898661	3869.7581675007846	-363.938996669065	-395.72002815650006	4009.5105590269577	-339.0016890647548	-139.27449016129344	4033.409240891712	-271.0077773349421	-18.482626491523387	4019.9725063956275	-270.151644745037	8.272449641813797	3984.4290362289744	-219.83630471340658	0.4597879280354705	4050.0059060364692	-249.57480444901324
500	8.333333333333334	-96.09131166259256	3861.4841150843745	-556.7529996951055	261.9768155584217	3994.2579301615874	-523.6296692898937	629.672494535906	4170.76287473641	-539.0763602924338	701.8107679090739	4094.136942808457	-478.202772819054	696.6037061951386	4050.6962043591266	-521.2589937631534	661.4139687412977	4217.054124542163	-548.0154855434713	-125.8932367046758	3923.4690742781504	-361.0408232062049	215.6164982761149	4006.1093281808235	-354.8988473044815	578.2139665631992	4194.880632603709	-383.0782735325127	681.3947324291471	4160.082466844507	-344.671227305673	645.2239871576651	4196.261985674801	-312.6625134070965	616.9959350014362	4257.635734976803	-424.6039724191117	-670.3074304171604	3708.375601056673	-469.7385251913203	-909.1655810579042	3549.2877456325023	-416.8736286923395	-750.087475944639	3559.7185601891065	-368.2636094328486	-572.395134130064	3647.89809228417	-588.4536717305976	-325.6197860271968	3737.344018884065	-709.8779438449055	-118.99037083511506	3636.3638054331595	-555.6431543882095	-42.931097313795156	3621.070614426113	-446.8340641470901	-13.309170180504756	3598.1701659654077	-448.3172862849922	-9.302545402625523	3600.7567684034434	-489.1883601462901	-632.9822037328644	3869.880820630538	-364.02943969334854	-395.7923903993459	4009.556712508033	-339.06702555256913	-139.3094945509845	4033.2058945580106	-271.0137007195366	-23.437737134313583	4019.3500829664945	-270.48136424456106	8.26466917404905	3983.960736259577	-219.72689847176508	0.313931521458344	4049.6965446661015	-249.588478888823
